<?xml version="1.0" standalone="no"?>
<!DOCTYPE svg PUBLIC "-//W3C//DTD SVG 20010904//EN"
 "http://www.w3.org/TR/2001/REC-SVG-20010904/DTD/svg10.dtd">
<svg version="1.0" xmlns="http://www.w3.org/2000/svg"
 width="600.000000pt" height="600.000000pt" viewBox="0 0 600.000000 600.000000"
 preserveAspectRatio="xMidYMid meet">

<g transform="translate(0.000000,600.000000) scale(0.100000,-0.100000)"
fill="#000000" stroke="none">
<path d="M0 3000 l0 -3000 3000 0 3000 0 0 3000 0 3000 -3000 0 -3000 0 0
-3000z m2550 -112 l0 -788 562 0 563 0 -100 100 -100 100 -397 0 c-347 0 -399
2 -412 16 -9 8 -16 24 -16 34 0 10 7 26 16 34 14 14 67 16 437 16 l422 0 200
-200 200 -200 -738 0 -737 0 0 813 0 812 -100 100 -100 100 0 -713 0 -712 34
0 c38 0 66 -21 66 -50 0 -39 -27 -50 -116 -50 l-84 0 0 887 0 888 200 -200
200 -200 0 -787z"/>
</g>
</svg>
